<?xml version="1.0" encoding="UTF-8" ?>
<svg width="50.791mm" height="6.5558mm" version="1.1" viewBox="0 0 50.791 6.5558" xmlns="http://www.w3.org/2000/svg">
    <g transform="translate(-152.61 -125.48)" fill="#1e88e5" shape-rendering="auto">
        <path transform="translate(50.171 -24.875)" d="m105.85 150.35c-0.10626-5e-3 -0.21352-3e-3 -0.32031 4e-3 -0.76098 0.0458-1.4951 0.36367-2.0508 0.88477-0.77794 0.72378-1.1715 1.8341-1 2.8867 0.11887 0.80687 0.56661 1.5446 1.1914 2.0586 0.78642 0.6366 1.8749 0.87288 2.8555 0.61914l-2e-3 2e-3c0.52295-0.13168 1.0162-0.40214 1.4043-0.77539a0.059485 0.059485 0 0 0 0.01-0.0117c0.0271-0.0443 0.0316-0.0954 0.0195-0.13867-0.0121-0.0432-0.0386-0.0798-0.0723-0.10547-0.0336-0.0257-0.0743-0.0427-0.11914-0.043-0.0449-3e-4 -0.0933 0.0188-0.12891 0.0566-0.62875 0.56321-1.5084 0.83207-2.3438 0.69921a0.059485 0.059485 0 0 0-2e-3 0c-0.50796-0.0728-0.99599-0.29842-1.3965-0.61914v2e-3c-0.6388-0.52885-1.0573-1.3295-1.0703-2.1621a0.059485 0.059485 0 0 0 0-2e-3c-0.0253-0.82292 0.33015-1.6472 0.93555-2.2031 0.46249-0.41826 1.0538-0.70094 1.6758-0.75391a0.059485 0.059485 0 0 0 2e-3 0c0.80031-0.0942 1.6143 0.21217 2.2246 0.73047a0.059485 0.059485 0 0 0 0.01 6e-3c0.0475 0.027 0.10239 0.0312 0.14648 0.0156 0.0441-0.0156 0.0781-0.0468 0.10157-0.084 0.0235-0.0372 0.0361-0.0824 0.0312-0.1289-5e-3 -0.0465-0.0313-0.0938-0.0762-0.125-0.5649-0.47738-1.2839-0.78036-2.0254-0.8125z" color="#000000" color-rendering="auto" dominant-baseline="auto" image-rendering="auto" solid-color="#000000" style="font-feature-settings:normal;font-variant-alternates:normal;font-variant-caps:normal;font-variant-ligatures:normal;font-variant-numeric:normal;font-variant-position:normal;isolation:auto;mix-blend-mode:normal;shape-padding:0;text-decoration-color:#000000;text-decoration-line:none;text-decoration-style:solid;text-indent:0;text-orientation:mixed;text-transform:none;white-space:normal" />
        <path d="m158.43 125.54c-0.12932 2e-3 -0.16582 0.1764-0.0713 0.25121 0.94448 1.3017 1.889 2.6034 2.8334 3.9051 4e-3 0.72689-7e-3 1.4551 5e-3 2.1812 0.0339 0.14503 0.26974 0.10937 0.25923-0.0392-2e-3 -0.73699 4e-3 -1.4744-3e-3 -2.2112-0.11146-0.20109-0.2694-0.37763-0.39848-0.56939-0.84347-1.1601-1.6822-2.3242-2.5286-3.4819-0.0257-0.0244-0.0615-0.0377-0.0969-0.0359zm4.7666 5e-3c-0.13822 0.018-0.17104 0.1871-0.255 0.27705-0.5253 0.77771-1.0506 1.5554-1.5759 2.3331-0.61821-0.85162-1.231-1.7077-1.8526-2.5566-0.10767-0.11081-0.29418 0.0547-0.19692 0.17479 0.65528 0.90257 1.305 1.8098 1.9637 2.7095 0.0961 0.0894 0.21478-9e-3 0.25407-0.10492 0.59501-0.88317 1.1953-1.7632 1.787-2.6483 0.0398-0.0847-0.031-0.18968-0.12445-0.18464z" color="#000000" color-rendering="auto" dominant-baseline="auto" image-rendering="auto" solid-color="#000000" style="font-feature-settings:normal;font-variant-alternates:normal;font-variant-caps:normal;font-variant-ligatures:normal;font-variant-numeric:normal;font-variant-position:normal;isolation:auto;mix-blend-mode:normal;shape-padding:0;text-decoration-color:#000000;text-decoration-line:none;text-decoration-style:solid;text-indent:0;text-orientation:mixed;text-transform:none;white-space:normal" />
        <path d="m164.78 125.54c-0.13675 2.6e-4 -0.14314 0.15735-0.13177 0.25802 2e-3 2.0208-3e-3 4.0419 2e-3 6.0625 0.0196 0.14996 0.26215 0.13416 0.26213-0.0171 5.2e-4 -2.013 6e-5 -4.0259 1.9e-4 -6.0388 0.0757 0 0.3015 3e-3 0.41376 3e-3 0.11251 0 0.11083-0.0127 0.10817 0.0925-2.6e-4 1.9852 4e-3 3.97 5.2e-4 5.9552 0.0248 0.17061 0.24162 0.1106 0.35704 0.12132 0.57858-6e-3 1.1582 0.0266 1.736-6e-3 0.84058-0.0602 1.5453-0.80313 1.6032-1.6365 0.10428-0.82715-0.49843-1.6766-1.312-1.8523 0.82065-0.26538 1.1713-1.3446 0.76195-2.0776-0.26915-0.54826-0.87534-0.89891-1.485-0.85776-0.77217-4e-3 -1.5446-0.0112-2.3166-7e-3zm0.91932 0.26613c0.56733 5e-3 1.1356-0.0107 1.7022 0.0202 0.71155 0.10208 1.2448 0.87739 1.0482 1.5769-0.0902 0.45298-0.46909 0.79912-0.90473 0.92023-0.24757 0.10295-0.5183 0.0465-0.7785 0.0609h-1.0672zm3e-3 2.8427c0.55565 1e-3 1.1115-2e-3 1.667 2e-3 0.56772 0.0295 1.1275 0.363 1.3602 0.89169 0.35583 0.6876 0.0386 1.6044-0.62698 1.9775-0.50197 0.29588-1.1043 0.17342-1.6575 0.19593-0.24428-0.01-0.52895 0.0185-0.74584-0.0208 1e-3 -1.0154 2e-3 -2.0308 3e-3 -3.0461z" color="#000000" color-rendering="auto" dominant-baseline="auto" image-rendering="auto" solid-color="#000000" style="font-feature-settings:normal;font-variant-alternates:normal;font-variant-caps:normal;font-variant-ligatures:normal;font-variant-numeric:normal;font-variant-position:normal;isolation:auto;mix-blend-mode:normal;shape-padding:0;text-decoration-color:#000000;text-decoration-line:none;text-decoration-style:solid;text-indent:0;text-orientation:mixed;text-transform:none;white-space:normal" />
        <path d="m170.72 125.52c-0.13564-2.6e-4 -0.14415 0.15497-0.13229 0.25525 2e-3 2.026-4e-3 4.052 3e-3 6.0776 0.0399 0.15579 0.22858 0.0941 0.34482 0.10609 1.2451-1e-3 2.4906 4e-3 3.7355-7.9e-4 0.14996-0.0196 0.13416-0.26215-0.0171-0.26213-1.2671-1e-3 -2.5342-1e-3 -3.8013-2e-3v-2.3673c1.0064-5.3e-4 2.0132 5e-3 3.0194 2.6e-4 0.14996-0.0196 0.13416-0.26215-0.0171-0.26212l-3.0023-3e-3v-0.51625c0.99385-2e-3 1.9881 3e-3 2.9817-2e-3 0.14997-0.0196 0.13417-0.26215-0.0171-0.26213-0.98821-5.3e-4 -1.9764-6e-5 -2.9646-1.9e-4v-2.497c1.2726-1e-3 2.5455 4e-3 3.8178-5.2e-4 0.14999-0.0193 0.13465-0.2619-0.0166-0.26216-1.3111-1e-3 -2.6223-1e-3 -3.9335-2e-3z" color="#000000" color-rendering="auto" dominant-baseline="auto" image-rendering="auto" solid-color="#000000" style="font-feature-settings:normal;font-variant-alternates:normal;font-variant-caps:normal;font-variant-ligatures:normal;font-variant-numeric:normal;font-variant-position:normal;isolation:auto;mix-blend-mode:normal;shape-padding:0;text-decoration-color:#000000;text-decoration-line:none;text-decoration-style:solid;text-indent:0;text-orientation:mixed;text-transform:none;white-space:normal" />
        <path d="m175.87 125.55c-0.13406-3e-5 -0.14383 0.15311-0.13169 0.25273 3e-3 2.0203-2.7e-4 4.041 6e-3 6.0611 0.0199 0.14992 0.26243 0.1336 0.26209-0.0177-1e-3 -2.0105-3e-3 -4.021-4e-3 -6.0316 0.0792-2e-3 0.31459 2e-3 0.42485 3e-3 0.1092 8e-4 0.0953-0.0139 0.0954 0.0876-2e-3 1.9861-0.01 3.9725-8e-3 5.9584 0.0193 0.15 0.2619 0.13465 0.26215-0.0166 2e-3 -0.86382 3e-3 -1.7276 4e-3 -2.5915l1.401 2e-3c0.40965 0.88642 0.81466 1.7753 1.2272 2.6602 0.079 0.12895 0.29406 0.0157 0.23239-0.12245-0.42291-0.91582-0.84064-1.8345-1.2678-2.7481-0.0912-0.0999-0.24381-0.0363-0.36243-0.0545-0.40993-5.3e-4 -0.81985-7.9e-4 -1.2298-1e-3 2.6e-4 -0.17587 7.9e-4 -0.35175 1e-3 -0.52762 0.54316-6e-3 1.0899 0.0434 1.6307-0.0221 0.54831-0.0667 1.0213-0.49106 1.1861-1.0111 0.16382-0.56528-4e-3 -1.2413-0.50211-1.5859-0.29359-0.23291-0.67354-0.31175-1.0413-0.29327-0.72882-3e-3 -1.4577-7.9e-4 -2.1866-5.3e-4zm0.91777 0.26458c0.55957 0.0119 1.1227-0.0286 1.68 0.0257 0.51598 0.10404 0.94272 0.57977 0.92598 1.117 0.0318 0.47934-0.27734 0.94987-0.71226 1.1394-0.4805 0.17376-1.0012 0.10806-1.501 0.10673-0.41137-3e-3 -0.38702 0.0237-0.39704-0.17059 1e-3 -0.73941 3e-3 -1.4788 4e-3 -2.2182z" color="#000000" color-rendering="auto" dominant-baseline="auto" image-rendering="auto" solid-color="#000000" style="font-feature-settings:normal;font-variant-alternates:normal;font-variant-caps:normal;font-variant-ligatures:normal;font-variant-numeric:normal;font-variant-position:normal;isolation:auto;mix-blend-mode:normal;shape-padding:0;text-decoration-color:#000000;text-decoration-line:none;text-decoration-style:solid;text-indent:0;text-orientation:mixed;text-transform:none;white-space:normal" />
        <path d="m181.13 125.55c-0.13481 2e-3 -0.14135 0.15592-0.13023 0.25569 1e-3 2.0234-4e-3 4.0473 2e-3 6.0705 0.0395 0.15517 0.22714 0.0944 0.34288 0.10606 1.2072-1e-3 2.4147 4e-3 3.6216-1e-3 0.14997-0.0196 0.13416-0.26215-0.0171-0.26212-0.96546-7.9e-4 -1.9309-7.9e-4 -2.8964-1e-3 -2e-3 -2.02 3e-3 -4.0403-2e-3 -6.0601-0.0196-0.14996-0.26215-0.13416-0.26213 0.0171-5.3e-4 2.0143-6e-5 4.0287-1.9e-4 6.043h-0.52451c-1e-3 -2.02 4e-3 -4.0403-1e-3 -6.06-0.0107-0.0618-0.0693-0.10954-0.13203-0.10753z" color="#000000" color-rendering="auto" dominant-baseline="auto" image-rendering="auto" solid-color="#000000" style="font-feature-settings:normal;font-variant-alternates:normal;font-variant-caps:normal;font-variant-ligatures:normal;font-variant-numeric:normal;font-variant-position:normal;isolation:auto;mix-blend-mode:normal;shape-padding:0;text-decoration-color:#000000;text-decoration-line:none;text-decoration-style:solid;text-indent:0;text-orientation:mixed;text-transform:none;white-space:normal" />
        <path d="m199.42 125.54a0.13251 0.13251 0 0 0-0.13384 0.1323l2e-3 6.1298a0.13255 0.13255 0 1 0 0.2651 0l-2e-3 -5.9965c0.17436 8e-4 0.34685 4e-3 0.5209 3e-3v2.7156a0.13251 0.13251 0 0 0-5.3e-4 0.01v3.266a0.13255 0.13255 0 1 0 0.2651 0v-3.1337c0.27531 2.6e-4 0.55079 2.6e-4 0.82631-1e-3a0.13251 0.13251 0 0 0 3e-3 0c0.45249-0.0123 1.0156 0.0767 1.4795-0.23926 0.51502-0.3107 0.81846-0.91757 0.7338-1.5182-0.078-0.71731-0.69078-1.3223-1.4206-1.3529a0.13251 0.13251 0 0 0-1e-3 0c-0.84946-0.0292-1.6958-8e-3 -2.5378-0.015zm0.91673 0.27027c0.53823-2e-3 1.0778-9e-3 1.6123 0.01 0.58721 0.0252 1.1049 0.53498 1.1674 1.1178a0.13251 0.13251 0 0 0 5.2e-4 5e-3c0.0699 0.48957-0.18586 1.0048-0.61029 1.2594a0.13251 0.13251 0 0 0-7e-3 4e-3c-0.35842 0.24622-0.85272 0.18154-1.341 0.19481l3e-3 -5.3e-4c-0.27484 1e-3 -0.5497 2e-3 -0.82476 2e-3z" color="#000000" color-rendering="auto" dominant-baseline="auto" image-rendering="auto" solid-color="#000000" style="font-feature-settings:normal;font-variant-alternates:normal;font-variant-caps:normal;font-variant-ligatures:normal;font-variant-numeric:normal;font-variant-position:normal;isolation:auto;mix-blend-mode:normal;shape-padding:0;text-decoration-color:#000000;text-decoration-line:none;text-decoration-style:solid;text-indent:0;text-orientation:mixed;text-transform:none;white-space:normal" />
        <path d="m187.65 125.7a0.0358 0.0358 0 0 1-0.0139 2e-3c-0.63121 5e-3 -1.3058 0.18995-1.82 0.57413-0.78084 0.58334-1.2564 1.2424-1.2366 2.588 0.0204 1.3923 1.052 2.2834 2.0138 2.5859 0.23703 0.0746 0.46528 0.12069 0.68522 0.13901 0.0827 7e-3 0.16263 0.01 0.24237 0.01 0.56006-2e-3 1.0602-0.17853 1.5022-0.44959 0.73651-0.45166 1.2465-1.0691 1.7927-1.6366 0.83907-0.87171 1.5758-1.7202 2.2386-2.3554l0.13436-0.12661v0.72144a0.012336 0.012306 0 0 1 0 2e-3 0.012336 0.012306 0 0 1 0 2e-3 0.012336 0.012306 0 0 1 0 2e-3 0.012336 0.012306 0 0 1-2e-3 2e-3 0.012336 0.012306 0 0 1-2e-3 2e-3 0.012336 0.012306 0 0 1-2e-3 0 0.012336 0.012306 0 0 1 0 2e-3 0.012336 0.012306 0 0 1-2e-3 0c-0.15961 0.0437-0.27958 0.18746-0.27957 0.35967 0 0.20603 0.16971 0.37776 0.3762 0.37776 0.20644 0 0.37672-0.17165 0.37672-0.37776 0-0.17226-0.12043-0.31619-0.28009-0.35967a0.012336 0.012306 0 0 1-2e-3 0 0.012336 0.012306 0 0 1 0-2e-3 0.012336 0.012306 0 0 1-2e-3 0 0.012336 0.012306 0 0 1-5.3e-4 -5.3e-4 0.012336 0.012306 0 0 1-1e-3 -2e-3 0.012336 0.012306 0 0 1-5.3e-4 -5.3e-4 0.012336 0.012306 0 0 1-1e-3 -2e-3 0.012336 0.012306 0 0 1 0-2e-3 0.012336 0.012306 0 0 1 0-2e-3 0.012336 0.012306 0 0 1 0-2e-3v-0.83196l0.0279-0.0682c0.078-0.068 0.15682-0.1385 0.23203-0.19792 0.76921-0.60772 1.8475-0.63502 2.4298-0.46095 0.46246 0.13824 0.81438 0.35314 1.0955 0.64233a0.0358 0.0358 0 0 1 2e-3 2e-3l0.10697 0.12764v2.6024a0.012336 0.012306 0 0 1 0 2e-3 0.012336 0.012306 0 0 1 0 2e-3 0.012336 0.012306 0 0 1 0 2e-3 0.012336 0.012306 0 0 1-2e-3 2e-3 0.012336 0.012306 0 0 1-2e-3 2e-3 0.012336 0.012306 0 0 1-2e-3 0 0.012336 0.012306 0 0 1 0 2e-3 0.012336 0.012306 0 0 1-2e-3 0 0.012336 0.012306 0 0 1-2e-3 0 0.012336 0.012306 0 0 1-2e-3 0 0.012336 0.012306 0 0 1-2e-3 0 0.012336 0.012306 0 0 1-2e-3 0 0.012336 0.012306 0 0 1-2e-3 0 0.012336 0.012306 0 0 1-5.3e-4 -5.3e-4 0.012336 0.012306 0 0 1-1e-3 -1e-3 0.012336 0.012306 0 0 1-2e-3 0l-0.83056-0.82836a0.012336 0.012306 0 0 1 0-2e-3 0.012336 0.012306 0 0 1-5.3e-4 -5.3e-4 0.012336 0.012306 0 0 1-1e-3 -1e-3 0.012336 0.012306 0 0 1 0-2e-3 0.012336 0.012306 0 0 1 0-2e-3 0.012336 0.012306 0 0 1 0-2e-3v-1.1803a0.012336 0.012306 0 0 1 0-2e-3 0.012336 0.012306 0 0 1 0-2e-3 0.012336 0.012306 0 0 1 0-2e-3 0.012336 0.012306 0 0 1 2e-3 -2e-3 0.012336 0.012306 0 0 1 2e-3 -2e-3 0.012336 0.012306 0 0 1 2e-3 0 0.012336 0.012306 0 0 1 0-2e-3 0.012336 0.012306 0 0 1 2e-3 0c0.15396-0.0473 0.2682-0.18797 0.2682-0.35605 0-0.20583-0.16991-0.37746-0.37621-0.37776l5.3e-4 -1e-3c-0.2062 2.6e-4 -0.37569 0.17194-0.37569 0.37775 0 0.15592 0.0969 0.29039 0.23358 0.34675a0.012336 0.012306 0 0 1 2e-3 0 0.012336 0.012306 0 0 1 1e-3 5.3e-4 0.012336 0.012306 0 0 1 5.3e-4 5.3e-4 0.012336 0.012306 0 0 1 2e-3 2e-3 0.012336 0.012306 0 0 1 0 2e-3 0.012336 0.012306 0 0 1 2e-3 0 0.012336 0.012306 0 0 1 0 2e-3 0.012336 0.012306 0 0 1 0 2e-3 0.012336 0.012306 0 0 1 0 2e-3v1.2924l0.39171 0.38913a0.012336 0.012306 0 0 1 0 2e-3 0.012336 0.012306 0 0 1 2e-3 2e-3 0.012336 0.012306 0 0 1 0 2e-3 0.012336 0.012306 0 0 1 0 2e-3 0.012336 0.012306 0 0 1 0 2e-3 0.012336 0.012306 0 0 1 0 2e-3 0.012336 0.012306 0 0 1 0 2e-3 0.012336 0.012306 0 0 1 0 2e-3 0.012336 0.012306 0 0 1-2e-3 2e-3 0.012336 0.012306 0 0 1-5.3e-4 5.3e-4 0.012336 0.012306 0 0 1-5.3e-4 5.3e-4 0.012336 0.012306 0 0 1-2e-3 2e-3 0.012336 0.012306 0 0 1-2e-3 0 0.012336 0.012306 0 0 1 0 2e-3 0.012336 0.012306 0 0 1-2e-3 0 0.012336 0.012306 0 0 1-2e-3 0 0.012336 0.012306 0 0 1-2e-3 0h-1.7464a0.012336 0.012306 0 0 1-2e-3 0 0.012336 0.012306 0 0 1-2e-3 0 0.012336 0.012306 0 0 1-2e-3 0 0.012336 0.012306 0 0 1-2e-3 -2e-3 0.012336 0.012306 0 0 1-2e-3 -2e-3 0.012336 0.012306 0 0 1 0-2e-3 0.012336 0.012306 0 0 1-2e-3 0 0.012336 0.012306 0 0 1 0-2e-3c-0.0526-0.14492-0.19059-0.25063-0.35295-0.25063-0.20651 0-0.37672 0.16972-0.37672 0.37569 0 0.20603 0.17014 0.37569 0.37672 0.37569 0.16233 0 0.30067-0.10562 0.35295-0.25063a0.012336 0.012306 0 0 1 0-2e-3 0.012336 0.012306 0 0 1 2e-3 0 0.012336 0.012306 0 0 1 0-2e-3 0.012336 0.012306 0 0 1 2e-3 -2e-3 0.012336 0.012306 0 0 1 5.3e-4 -5.3e-4 0.012336 0.012306 0 0 1 2e-3 -2e-3 0.012336 0.012306 0 0 1 2e-3 0 0.012336 0.012306 0 0 1 2e-3 0 0.012336 0.012306 0 0 1 2e-3 0h1.9787v-4e-3a0.012336 0.012306 0 0 1 0-2e-3 0.012336 0.012306 0 0 1 0-2e-3 0.012336 0.012306 0 0 1 0-2e-3 0.012336 0.012306 0 0 1 2e-3 -2e-3 0.012336 0.012306 0 0 1 2e-3 -2e-3 0.012336 0.012306 0 0 1 2e-3 0 0.012336 0.012306 0 0 1 0-2e-3 0.012336 0.012306 0 0 1 2e-3 0 0.012336 0.012306 0 0 1 2e-3 0 0.012336 0.012306 0 0 1 2e-3 0 0.012336 0.012306 0 0 1 2e-3 0 0.012336 0.012306 0 0 1 2e-3 0 0.012336 0.012306 0 0 1 2e-3 0 0.012336 0.012306 0 0 1 5.3e-4 5.3e-4 0.012336 0.012306 0 0 1 1e-3 1e-3 0.012336 0.012306 0 0 1 2e-3 0l0.45181 0.44906a0.012336 0.012306 0 0 1 0 2e-3 0.012336 0.012306 0 0 1 2e-3 2e-3 0.012336 0.012306 0 0 1 0 2e-3 0.012336 0.012306 0 0 1 0 2e-3 0.012336 0.012306 0 0 1 0 2e-3v0.35451l-0.11111 0.12764a0.0358 0.0358 0 0 1-2e-3 2e-3c-0.17627 0.1813-0.37933 0.34724-0.61289 0.48835-0.76897 0.46461-1.9572 0.36507-2.7109-0.1385a0.0358 0.0358 0 0 1-2e-3 -2e-3h1.542a0.012336 0.012306 0 0 1 2e-3 0 0.012336 0.012306 0 0 1 2e-3 0 0.012336 0.012306 0 0 1 2e-3 0 0.012336 0.012306 0 0 1 2e-3 2e-3 0.012336 0.012306 0 0 1 5.3e-4 5.3e-4 0.012336 0.012306 0 0 1 2e-3 2e-3 0.012336 0.012306 0 0 1 0 2e-3 0.012336 0.012306 0 0 1 2e-3 0 0.012336 0.012306 0 0 1 0 2e-3c0.0553 0.13925 0.18895 0.23926 0.34726 0.23926 0.20651 0 0.37879-0.16961 0.37879-0.37568 0-0.20591-0.17241-0.37568-0.37879-0.37569v-1e-3c-0.16658 0-0.30611 0.1112-0.35501 0.262a0.012336 0.012306 0 0 1 0 2e-3 0.012336 0.012306 0 0 1-2e-3 2e-3 0.012336 0.012306 0 0 1-2e-3 2e-3 0.012336 0.012306 0 0 1-2e-3 0 0.012336 0.012306 0 0 1 0 2e-3 0.012336 0.012306 0 0 1-2e-3 0 0.012336 0.012306 0 0 1-2e-3 0 0.012336 0.012306 0 0 1-2e-3 0h-1.8288l-0.0238-0.0191v-2e-3a0.0358 0.0358 0 0 1-6e-3 -4e-3 0.0358 0.0358 0 0 1-2e-3 0c-0.54364-0.48429-0.73526-0.69085-1.0108-0.98752 0.0274-0.0576 0.046-0.12051 0.046-0.1881 0-0.24771-0.20394-0.45114-0.45165-0.45114s-0.45113 0.20342-0.45113 0.45114c0 0.2477 0.20342 0.45165 0.45113 0.45165 0.0503 0 0.0975-0.0112 0.14263-0.0269 0.29894 0.32262 0.48668 0.52826 1.1524 1.1162 0.85776 0.75755 2.3336 0.94635 3.344 0.33589 0.97634-0.58988 1.5327-1.5594 1.5369-2.5409 2e-3 -0.50922-0.20394-1.2214-0.56999-1.7363-0.35683-0.50195-0.85357-0.86875-1.5276-1.0702-0.69912-0.20899-1.8646-0.18365-2.7518 0.51728-0.85401 0.67472-1.7684 1.7755-2.8458 2.8949-0.45092 0.46847-0.85952 0.93878-1.355 1.3214l-0.72192-0.68833 0.87591-0.50488c0.0715 0.0574 0.16103 0.093 0.2589 0.093 0.22843 0 0.41651-0.18799 0.41651-0.41651 0-0.22843-0.18801-0.41548-0.41651-0.41548-0.22843 0-0.41651 0.18698-0.41651 0.41548 0 0.0469 0.0107 0.0914 0.0243 0.13384l-0.96273 0.55655h-0.98806v-0.93069c0.17653-0.0484 0.308-0.20905 0.308-0.39997 0-0.22844-0.1875-0.41652-0.416-0.41652-0.22842 0-0.416 0.18801-0.416 0.41652 0 0.19097 0.13193 0.35178 0.30851 0.39997v0.93069h-1.3224v-2.9689c0.0907-0.0801 0.1833-0.15961 0.28991-0.23926 0.6145-0.45907 1.5854-0.58617 2.2655-0.42375a0.0358 0.0358 0 0 1 2e-3 0l0.20671 0.0625a0.0358 0.0358 0 0 1 2e-3 2e-3c4e-3 1e-3 5e-3 2e-3 9e-3 3e-3v0.87282h-1.5508c-0.0471-0.17774-0.20859-0.31109-0.4005-0.31109-0.22845 0-0.41599 0.18803-0.41599 0.41651 0 0.22842 0.18747 0.41651 0.41599 0.41651 0.18732 0 0.34539-0.12767 0.39688-0.29921h1.7777v-0.9958c0.52511 0.26704 0.91378 0.71371 1.5312 1.3823-0.0339 0.0632-0.0568 0.13321-0.0568 0.20929 0 0.24772 0.20393 0.45114 0.45165 0.45114 0.2477 0 0.45114-0.20342 0.45114-0.45114 0-0.2477-0.20344-0.45165-0.45114-0.45165-0.0412 0-0.0801 9e-3 -0.11782 0.0196-0.69367-0.75484-1.1129-1.2747-1.8599-1.5766-0.30196-0.12205-0.65928-0.18338-1.033-0.18191zm-1.0893 1.2919c0.10384 0 0.18551 0.0825 0.18551 0.18604 0 0.10382-0.0816 0.18552-0.18551 0.18552-0.10385 0-0.18604-0.0817-0.18604-0.18552 0-0.10385 0.0825-0.18604 0.18604-0.18604zm9.7477 0.0129c0.10349 0 0.18346 0.082 0.18346 0.185 0 0.10307-0.0801 0.18293-0.18346 0.18293-0.10348 0-0.18499-0.0796-0.18499-0.18293s0.0815-0.185 0.18499-0.185zm-10.831 0.0506v3.2474l-0.032-0.0341-4e-3 -4e-3a0.0358 0.0358 0 0 1-2e-3 -2e-3c-0.29743-0.36796-0.49758-0.83777-0.50592-1.4061-0.0128-0.86529 0.16317-1.3568 0.50592-1.7616a0.0358 0.0358 0 0 1 2e-3 -2e-3l4e-3 -4e-3zm11.981 0.17053c0.2734 0.43546 0.44401 1.0594 0.44235 1.4371-2e-3 0.4748-0.15489 0.95179-0.44235 1.3741zm-6.7965 0.46302c0.11269 0 0.20155 0.0889 0.20155 0.20154 0 0.11268-0.0889 0.20102-0.20155 0.20102-0.11267 0-0.20153-0.0884-0.20153-0.20102 0-0.11268 0.0889-0.20154 0.20153-0.20154zm2.6164 0.25167c0.10374 0 0.18552 0.0817 0.18552 0.185 0 0.10322-0.082 0.185-0.18552 0.185-0.10356 0-0.18551-0.0817-0.18551-0.185 0-0.10334 0.0821-0.185 0.18551-0.185zm-6.1107 0.308c0.10383 0 0.18552 0.0824 0.18552 0.18603 0 0.10384-0.0818 0.185-0.18552 0.185-0.10404 0-0.18551-0.0812-0.18551-0.185 0-0.10382 0.0817-0.18603 0.18551-0.18603zm2.451 0.64078c0.10385 0 0.18552 0.082 0.18552 0.18552 0 0.10384-0.0817 0.18552-0.18552 0.18552-0.10405 0-0.18602-0.0817-0.18602-0.18552 0-0.10385 0.0825-0.18552 0.18602-0.18552zm2.4614 0.23668c0.11269 0 0.20155 0.0884 0.20155 0.20102 0 0.11268-0.0889 0.20154-0.20155 0.20154-0.11267 0-0.20102-0.0889-0.20102-0.20154 0-0.11268 0.0884-0.20102 0.20102-0.20102zm2.3647 0.0589c0.10358 0 0.18501 0.0797 0.18499 0.18294 0 0.10334-0.0816 0.185-0.18499 0.185-0.10376 0-0.18553-0.0818-0.18553-0.185 0-0.10321 0.0822-0.18294 0.18553-0.18294zm-8.707 0.81081h2.5094l0.76998 0.73484-0.0367 0.0263a0.0358 0.0358 0 0 1-2e-3 0c-0.0466 0.0314-0.0901 0.0627-0.13695 0.0915-0.60915 0.37355-1.2863 0.53286-2.1425 0.26356-0.33021-0.10387-0.66915-0.29137-0.9617-0.54829zm9.9865 0.45475c0.10349 0 0.18552 0.0812 0.18552 0.18448 0 0.10332-0.082 0.18501-0.18552 0.18501-0.10356 0-0.18292-0.0819-0.18293-0.18501 0-0.10316 0.0794-0.18448 0.18293-0.18448z" color="#000000" color-rendering="auto" dominant-baseline="auto" image-rendering="auto" solid-color="#000000" style="font-feature-settings:normal;font-variant-alternates:normal;font-variant-caps:normal;font-variant-ligatures:normal;font-variant-numeric:normal;font-variant-position:normal;isolation:auto;mix-blend-mode:normal;shape-padding:0;text-decoration-color:#000000;text-decoration-line:none;text-decoration-style:solid;text-indent:0;text-orientation:mixed;text-transform:none;white-space:normal" />
    </g>
</svg>
